# Blender v2.78 (sub 0) OBJ File: ''
# www.blender.org
mtllib falcon9.mtl
o GridFin
v 0.331250 0.462500 -0.187500
v -0.356250 0.462500 -0.187500
v -0.356250 0.525000 -0.187500
v 0.331250 0.525000 -0.187500
v -0.356250 0.462500 -0.125000
v 0.331250 0.462500 -0.125000
v 0.331250 0.525000 -0.125000
v -0.356250 0.525000 -0.125000
v 0.293750 0.868750 -0.187500
v -0.331250 0.868750 -0.187500
v -0.331250 0.931250 -0.187500
v 0.293750 0.931250 -0.187500
v -0.331250 0.868750 -0.125000
v 0.293750 0.868750 -0.125000
v 0.293750 0.931250 -0.125000
v -0.331250 0.931250 -0.125000
v 0.093750 0.525000 -0.187500
v 0.031250 0.525000 -0.187500
v 0.031250 1.337500 -0.187500
v 0.093750 1.337500 -0.187500
v 0.031250 0.525000 -0.125000
v 0.093750 0.525000 -0.125000
v 0.093750 1.337500 -0.125000
v 0.031250 1.337500 -0.125000
v 0.293750 0.618750 -0.187500
v -0.331250 0.618750 -0.187500
v -0.331250 0.681250 -0.187500
v 0.293750 0.681250 -0.187500
v -0.331250 0.618750 -0.125000
v 0.293750 0.618750 -0.125000
v 0.293750 0.681250 -0.125000
v -0.331250 0.681250 -0.125000
v -0.318750 0.462500 -0.187500
v -0.381250 0.462500 -0.187500
v -0.381250 1.087500 -0.187500
v -0.318750 1.087500 -0.187500
v -0.381250 0.462500 -0.125000
v -0.318750 0.462500 -0.125000
v -0.318750 1.087500 -0.125000
v -0.381250 1.087500 -0.125000
v 0.246144 1.114420 -0.187500
v -0.253780 1.123146 -0.187500
v -0.252689 1.185637 -0.187500
v 0.247235 1.176911 -0.187500
v -0.253780 1.123146 -0.125000
v 0.246144 1.114420 -0.125000
v 0.247235 1.176911 -0.125000
v -0.252689 1.185637 -0.125000
v 0.293750 0.993750 -0.187500
v -0.331250 0.993750 -0.187500
v -0.331250 1.056250 -0.187500
v 0.293750 1.056250 -0.187500
v -0.331250 0.993750 -0.125000
v 0.293750 0.993750 -0.125000
v 0.293750 1.056250 -0.125000
v -0.331250 1.056250 -0.125000
v 0.296134 1.050205 -0.188450
v 0.031009 1.315330 -0.181905
v 0.075203 1.359524 -0.181905
v 0.340328 1.094399 -0.188450
v 0.031780 1.314559 -0.119415
v 0.296905 1.049434 -0.125960
v 0.341099 1.093628 -0.125960
v 0.075975 1.358753 -0.119415
v 0.112500 1.306250 -0.187500
v -0.137500 1.306250 -0.187500
v -0.137500 1.368750 -0.187500
v 0.112500 1.368750 -0.187500
v -0.137500 1.306250 -0.125000
v 0.112500 1.306250 -0.125000
v 0.112500 1.368750 -0.125000
v -0.137500 1.368750 -0.125000
v -0.070711 1.310983 -0.187500
v -0.335876 1.045818 -0.187500
v -0.380070 1.090013 -0.187500
v -0.114905 1.355178 -0.187500
v -0.335876 1.045818 -0.125000
v -0.070711 1.310983 -0.125000
v -0.114905 1.355178 -0.125000
v -0.380070 1.090013 -0.125000
v -0.187500 0.525000 -0.187500
v -0.250000 0.525000 -0.187500
v -0.250000 1.212500 -0.187500
v -0.187500 1.212500 -0.187500
v -0.250000 0.525000 -0.125000
v -0.187500 0.525000 -0.125000
v -0.187500 1.212500 -0.125000
v -0.250000 1.212500 -0.125000
v 0.218750 0.525000 -0.187500
v 0.156250 0.525000 -0.187500
v 0.156250 1.212500 -0.187500
v 0.218750 1.212500 -0.187500
v 0.156250 0.525000 -0.125000
v 0.218750 0.525000 -0.125000
v 0.218750 1.212500 -0.125000
v 0.156250 1.212500 -0.125000
v 0.293750 0.743750 -0.187500
v -0.331250 0.743750 -0.187500
v -0.331250 0.806250 -0.187500
v 0.293750 0.806250 -0.187500
v -0.331250 0.743750 -0.125000
v 0.293750 0.743750 -0.125000
v 0.293750 0.806250 -0.125000
v -0.331250 0.806250 -0.125000
v 0.343750 0.468750 -0.187500
v 0.281250 0.468750 -0.187500
v 0.281250 1.093750 -0.187500
v 0.343750 1.093750 -0.187500
v 0.281250 0.468750 -0.125000
v 0.343750 0.468750 -0.125000
v 0.343750 1.093750 -0.125000
v 0.281250 1.093750 -0.125000
v -0.062500 0.525000 -0.187500
v -0.125000 0.525000 -0.187500
v -0.125000 1.337500 -0.187500
v -0.062500 1.337500 -0.187500
v -0.125000 0.525000 -0.125000
v -0.062500 0.525000 -0.125000
v -0.062500 1.337500 -0.125000
v -0.125000 1.337500 -0.125000
vt 0.2168 0.6523
vt 0.2383 0.6523
vt 0.2383 0.6543
vt 0.2168 0.6543
vt 0.2402 0.6523
vt 0.2617 0.6523
vt 0.2617 0.6543
vt 0.2402 0.6543
vt 0.2383 0.6562
vt 0.2168 0.6562
vt 0.2383 0.6543
vt 0.2598 0.6543
vt 0.2598 0.6562
vt 0.2383 0.6562
vt 0.2148 0.6523
vt 0.2148 0.6543
vt 0.2227 0.6660
vt 0.2422 0.6660
vt 0.2422 0.6680
vt 0.2227 0.6680
vt 0.2441 0.6660
vt 0.2637 0.6660
vt 0.2637 0.6680
vt 0.2441 0.6680
vt 0.2422 0.6699
vt 0.2227 0.6699
vt 0.2422 0.6680
vt 0.2617 0.6680
vt 0.2617 0.6699
vt 0.2422 0.6699
vt 0.2207 0.6660
vt 0.2207 0.6680
vt 0.1953 0.6426
vt 0.1973 0.6426
vt 0.1973 0.6680
vt 0.1953 0.6680
vt 0.1992 0.6426
vt 0.2012 0.6426
vt 0.2012 0.6680
vt 0.1992 0.6680
vt 0.1973 0.6699
vt 0.1953 0.6699
vt 0.1973 0.6680
vt 0.1992 0.6680
vt 0.1992 0.6699
vt 0.1973 0.6699
vt 0.1934 0.6426
vt 0.1934 0.6680
vt 0.2227 0.6660
vt 0.2422 0.6660
vt 0.2422 0.6680
vt 0.2227 0.6680
vt 0.2441 0.6660
vt 0.2637 0.6660
vt 0.2637 0.6680
vt 0.2441 0.6680
vt 0.2422 0.6699
vt 0.2227 0.6699
vt 0.2422 0.6680
vt 0.2617 0.6680
vt 0.2617 0.6699
vt 0.2422 0.6699
vt 0.2207 0.6660
vt 0.2207 0.6680
vt 0.2070 0.6484
vt 0.2090 0.6484
vt 0.2090 0.6680
vt 0.2070 0.6680
vt 0.2109 0.6484
vt 0.2129 0.6484
vt 0.2129 0.6680
vt 0.2109 0.6680
vt 0.2090 0.6699
vt 0.2070 0.6699
vt 0.2090 0.6680
vt 0.2109 0.6680
vt 0.2109 0.6699
vt 0.2090 0.6699
vt 0.2051 0.6484
vt 0.2051 0.6680
vt 0.2227 0.6660
vt 0.2383 0.6660
vt 0.2383 0.6680
vt 0.2227 0.6680
vt 0.2402 0.6660
vt 0.2559 0.6660
vt 0.2559 0.6680
vt 0.2402 0.6680
vt 0.2383 0.6699
vt 0.2227 0.6699
vt 0.2383 0.6680
vt 0.2539 0.6680
vt 0.2539 0.6699
vt 0.2383 0.6699
vt 0.2207 0.6660
vt 0.2207 0.6680
vt 0.2227 0.6660
vt 0.2422 0.6660
vt 0.2422 0.6680
vt 0.2227 0.6680
vt 0.2441 0.6660
vt 0.2637 0.6660
vt 0.2637 0.6680
vt 0.2441 0.6680
vt 0.2422 0.6699
vt 0.2227 0.6699
vt 0.2422 0.6680
vt 0.2617 0.6680
vt 0.2617 0.6699
vt 0.2422 0.6699
vt 0.2207 0.6660
vt 0.2207 0.6680
vt 0.2441 0.6738
vt 0.2559 0.6738
vt 0.2559 0.6758
vt 0.2441 0.6758
vt 0.2578 0.6738
vt 0.2695 0.6738
vt 0.2695 0.6758
vt 0.2578 0.6758
vt 0.2559 0.6777
vt 0.2441 0.6777
vt 0.2559 0.6758
vt 0.2676 0.6758
vt 0.2676 0.6777
vt 0.2559 0.6777
vt 0.2422 0.6738
vt 0.2422 0.6758
vt 0.2305 0.6797
vt 0.2383 0.6797
vt 0.2383 0.6816
vt 0.2305 0.6816
vt 0.2402 0.6797
vt 0.2480 0.6797
vt 0.2480 0.6816
vt 0.2402 0.6816
vt 0.2383 0.6836
vt 0.2305 0.6836
vt 0.2383 0.6816
vt 0.2461 0.6816
vt 0.2461 0.6836
vt 0.2383 0.6836
vt 0.2285 0.6797
vt 0.2285 0.6816
vt 0.2109 0.6738
vt 0.2227 0.6738
vt 0.2227 0.6758
vt 0.2109 0.6758
vt 0.2246 0.6738
vt 0.2363 0.6738
vt 0.2363 0.6758
vt 0.2246 0.6758
vt 0.2227 0.6777
vt 0.2109 0.6777
vt 0.2227 0.6758
vt 0.2344 0.6758
vt 0.2344 0.6777
vt 0.2227 0.6777
vt 0.2090 0.6738
vt 0.2090 0.6758
vt 0.1953 0.6465
vt 0.1973 0.6465
vt 0.1973 0.6680
vt 0.1953 0.6680
vt 0.1992 0.6465
vt 0.2012 0.6465
vt 0.2012 0.6680
vt 0.1992 0.6680
vt 0.1973 0.6699
vt 0.1953 0.6699
vt 0.1973 0.6680
vt 0.1992 0.6680
vt 0.1992 0.6699
vt 0.1973 0.6699
vt 0.1934 0.6465
vt 0.1934 0.6680
vt 0.1953 0.6465
vt 0.1973 0.6465
vt 0.1973 0.6680
vt 0.1953 0.6680
vt 0.1992 0.6465
vt 0.2012 0.6465
vt 0.2012 0.6680
vt 0.1992 0.6680
vt 0.1973 0.6699
vt 0.1953 0.6699
vt 0.1973 0.6680
vt 0.1992 0.6680
vt 0.1992 0.6699
vt 0.1973 0.6699
vt 0.1934 0.6465
vt 0.1934 0.6680
vt 0.2227 0.6660
vt 0.2422 0.6660
vt 0.2422 0.6680
vt 0.2227 0.6680
vt 0.2441 0.6660
vt 0.2637 0.6660
vt 0.2637 0.6680
vt 0.2441 0.6680
vt 0.2422 0.6699
vt 0.2227 0.6699
vt 0.2422 0.6680
vt 0.2617 0.6680
vt 0.2617 0.6699
vt 0.2422 0.6699
vt 0.2207 0.6660
vt 0.2207 0.6680
vt 0.2676 0.6484
vt 0.2695 0.6484
vt 0.2695 0.6680
vt 0.2676 0.6680
vt 0.2715 0.6484
vt 0.2734 0.6484
vt 0.2734 0.6680
vt 0.2715 0.6680
vt 0.2695 0.6699
vt 0.2676 0.6699
vt 0.2695 0.6680
vt 0.2715 0.6680
vt 0.2715 0.6699
vt 0.2695 0.6699
vt 0.2656 0.6484
vt 0.2656 0.6680
vt 0.1953 0.6426
vt 0.1973 0.6426
vt 0.1973 0.6680
vt 0.1953 0.6680
vt 0.1992 0.6426
vt 0.2012 0.6426
vt 0.2012 0.6680
vt 0.1992 0.6680
vt 0.1973 0.6699
vt 0.1953 0.6699
vt 0.1973 0.6680
vt 0.1992 0.6680
vt 0.1992 0.6699
vt 0.1973 0.6699
vt 0.1934 0.6426
vt 0.1934 0.6680
vn 0.0000 0.0000 -1.0000
vn 0.0000 -0.0000 1.0000
vn 0.0000 1.0000 0.0000
vn 0.0000 -1.0000 0.0000
vn 1.0000 -0.0000 0.0000
vn -1.0000 -0.0000 0.0000
vn 0.0175 0.9998 0.0000
vn -0.0175 -0.9998 0.0000
vn 0.9998 -0.0175 0.0000
vn -0.9998 0.0175 0.0000
vn -0.0123 0.0123 -0.9998
vn 0.0123 -0.0123 0.9998
vn 0.7071 0.7071 -0.0000
vn -0.7071 -0.7071 -0.0000
vn 0.7070 -0.7070 -0.0174
vn -0.7070 0.7070 0.0175
vn -0.7071 0.7071 0.0000
vn 0.7071 -0.7071 0.0000
usemtl None
f 1/1/1 2/2/1 3/3/1 4/4/1
f 5/5/2 6/6/2 7/7/2 8/8/2
f 4/4/3 3/3/3 8/9/3 7/10/3
f 6/11/4 5/12/4 2/13/4 1/14/4
f 6/15/5 1/1/5 4/4/5 7/16/5
f 2/2/6 5/5/6 8/8/6 3/3/6
f 9/17/1 10/18/1 11/19/1 12/20/1
f 13/21/2 14/22/2 15/23/2 16/24/2
f 12/20/3 11/19/3 16/25/3 15/26/3
f 14/27/4 13/28/4 10/29/4 9/30/4
f 14/31/5 9/17/5 12/20/5 15/32/5
f 10/18/6 13/21/6 16/24/6 11/19/6
f 17/33/1 18/34/1 19/35/1 20/36/1
f 21/37/2 22/38/2 23/39/2 24/40/2
f 20/36/3 19/35/3 24/41/3 23/42/3
f 22/43/4 21/44/4 18/45/4 17/46/4
f 22/47/5 17/33/5 20/36/5 23/48/5
f 18/34/6 21/37/6 24/40/6 19/35/6
f 25/49/1 26/50/1 27/51/1 28/52/1
f 29/53/2 30/54/2 31/55/2 32/56/2
f 28/52/3 27/51/3 32/57/3 31/58/3
f 30/59/4 29/60/4 26/61/4 25/62/4
f 30/63/5 25/49/5 28/52/5 31/64/5
f 26/50/6 29/53/6 32/56/6 27/51/6
f 33/65/1 34/66/1 35/67/1 36/68/1
f 37/69/2 38/70/2 39/71/2 40/72/2
f 36/68/3 35/67/3 40/73/3 39/74/3
f 38/75/4 37/76/4 34/77/4 33/78/4
f 38/79/5 33/65/5 36/68/5 39/80/5
f 34/66/6 37/69/6 40/72/6 35/67/6
f 41/81/1 42/82/1 43/83/1 44/84/1
f 45/85/2 46/86/2 47/87/2 48/88/2
f 44/84/7 43/83/7 48/89/7 47/90/7
f 46/91/8 45/92/8 42/93/8 41/94/8
f 46/95/9 41/81/9 44/84/9 47/96/9
f 42/82/10 45/85/10 48/88/10 43/83/10
f 49/97/1 50/98/1 51/99/1 52/100/1
f 53/101/2 54/102/2 55/103/2 56/104/2
f 52/100/3 51/99/3 56/105/3 55/106/3
f 54/107/4 53/108/4 50/109/4 49/110/4
f 54/111/5 49/97/5 52/100/5 55/112/5
f 50/98/6 53/101/6 56/104/6 51/99/6
f 57/113/11 58/114/11 59/115/11 60/116/11
f 61/117/12 62/118/12 63/119/12 64/120/12
f 60/116/13 59/115/13 64/121/13 63/122/13
f 62/123/14 61/124/14 58/125/14 57/126/14
f 62/127/15 57/113/15 60/116/15 63/128/15
f 58/114/16 61/117/16 64/120/16 59/115/16
f 65/129/1 66/130/1 67/131/1 68/132/1
f 69/133/2 70/134/2 71/135/2 72/136/2
f 68/132/3 67/131/3 72/137/3 71/138/3
f 70/139/4 69/140/4 66/141/4 65/142/4
f 70/143/5 65/129/5 68/132/5 71/144/5
f 66/130/6 69/133/6 72/136/6 67/131/6
f 73/145/1 74/146/1 75/147/1 76/148/1
f 77/149/2 78/150/2 79/151/2 80/152/2
f 76/148/17 75/147/17 80/153/17 79/154/17
f 78/155/18 77/156/18 74/157/18 73/158/18
f 78/159/13 73/145/13 76/148/13 79/160/13
f 74/146/14 77/149/14 80/152/14 75/147/14
f 81/161/1 82/162/1 83/163/1 84/164/1
f 85/165/2 86/166/2 87/167/2 88/168/2
f 84/164/3 83/163/3 88/169/3 87/170/3
f 86/171/4 85/172/4 82/173/4 81/174/4
f 86/175/5 81/161/5 84/164/5 87/176/5
f 82/162/6 85/165/6 88/168/6 83/163/6
f 89/177/1 90/178/1 91/179/1 92/180/1
f 93/181/2 94/182/2 95/183/2 96/184/2
f 92/180/3 91/179/3 96/185/3 95/186/3
f 94/187/4 93/188/4 90/189/4 89/190/4
f 94/191/5 89/177/5 92/180/5 95/192/5
f 90/178/6 93/181/6 96/184/6 91/179/6
f 97/193/1 98/194/1 99/195/1 100/196/1
f 101/197/2 102/198/2 103/199/2 104/200/2
f 100/196/3 99/195/3 104/201/3 103/202/3
f 102/203/4 101/204/4 98/205/4 97/206/4
f 102/207/5 97/193/5 100/196/5 103/208/5
f 98/194/6 101/197/6 104/200/6 99/195/6
f 105/209/1 106/210/1 107/211/1 108/212/1
f 109/213/2 110/214/2 111/215/2 112/216/2
f 108/212/3 107/211/3 112/217/3 111/218/3
f 110/219/4 109/220/4 106/221/4 105/222/4
f 110/223/5 105/209/5 108/212/5 111/224/5
f 106/210/6 109/213/6 112/216/6 107/211/6
f 113/225/1 114/226/1 115/227/1 116/228/1
f 117/229/2 118/230/2 119/231/2 120/232/2
f 116/228/3 115/227/3 120/233/3 119/234/3
f 118/235/4 117/236/4 114/237/4 113/238/4
f 118/239/5 113/225/5 116/228/5 119/240/5
f 114/226/6 117/229/6 120/232/6 115/227/6
