# Blender v2.78 (sub 0) OBJ File: ''
# www.blender.org
mtllib merlin1d.mtl
o Nozzle
v 0.125000 0.306250 0.312500
v -0.187500 0.306250 0.312500
v -0.187500 0.606644 0.226363
v 0.125000 0.606644 0.226363
v -0.187500 0.323477 0.372579
v 0.125000 0.323477 0.372579
v 0.125000 0.623872 0.286442
v -0.187500 0.623872 0.286442
v 0.304938 0.348885 0.196209
v 0.262455 0.336704 0.152015
v 0.176319 0.637098 0.152015
v 0.218801 0.649280 0.196209
v 0.092527 0.287978 0.328791
v 0.135009 0.300159 0.372985
v 0.048872 0.600553 0.372985
v 0.006390 0.588372 0.328791
v -0.312500 0.025000 -0.125000
v -0.375000 0.025000 -0.125000
v -0.375000 0.337500 -0.125000
v -0.312500 0.337500 -0.125000
v -0.375000 0.025000 0.187500
v -0.312500 0.025000 0.187500
v -0.312500 0.337500 0.187500
v -0.375000 0.337500 0.187500
v -0.322464 0.330613 0.149112
v -0.364946 0.342795 0.193306
v -0.278810 0.643189 0.193306
v -0.236328 0.631007 0.149112
v -0.195018 0.294068 0.370082
v -0.152536 0.281887 0.325888
v -0.066399 0.582281 0.325888
v -0.108881 0.594463 0.370082
v 0.125000 0.025000 0.312500
v -0.187500 0.025000 0.312500
v -0.187500 0.337500 0.312500
v 0.125000 0.337500 0.312500
v -0.187500 0.025000 0.375000
v 0.125000 0.025000 0.375000
v 0.125000 0.337500 0.375000
v -0.187500 0.337500 0.375000
v 0.130806 0.025000 -0.307582
v 0.086612 0.025000 -0.263388
v 0.086612 0.337500 -0.263388
v 0.130806 0.337500 -0.307582
v 0.263388 0.025000 -0.086612
v 0.307582 0.025000 -0.130806
v 0.307583 0.337500 -0.130806
v 0.263388 0.337500 -0.086612
v -0.149112 0.025000 -0.263388
v -0.193306 0.025000 -0.307582
v -0.193306 0.337500 -0.307582
v -0.149112 0.337500 -0.263388
v -0.370082 0.025000 -0.130806
v -0.325888 0.025000 -0.086612
v -0.325888 0.337500 -0.086612
v -0.370082 0.337500 -0.130806
v 0.312500 0.025000 -0.125000
v 0.250000 0.025000 -0.125000
v 0.250000 0.337500 -0.125000
v 0.312500 0.337500 -0.125000
v 0.250000 0.025000 0.187500
v 0.312500 0.025000 0.187500
v 0.312500 0.337500 0.187500
v 0.250000 0.337500 0.187500
v 0.310079 0.323477 -0.125000
v 0.250000 0.306250 -0.125000
v 0.163863 0.606644 -0.125000
v 0.223942 0.623872 -0.125000
v 0.250000 0.306250 0.187500
v 0.310079 0.323477 0.187500
v 0.223942 0.623872 0.187500
v 0.163863 0.606644 0.187500
v 0.125000 0.025000 -0.312500
v -0.187500 0.025000 -0.312500
v -0.187500 0.337500 -0.312500
v 0.125000 0.337500 -0.312500
v -0.187500 0.025000 -0.250000
v 0.125000 0.025000 -0.250000
v 0.125000 0.337500 -0.250000
v -0.187500 0.337500 -0.250000
v -0.153790 0.277708 -0.263335
v -0.196272 0.289890 -0.307529
v -0.102775 0.587975 -0.315240
v -0.060293 0.575794 -0.271046
v -0.363692 0.346973 -0.130860
v -0.321210 0.334792 -0.086665
v -0.227713 0.632877 -0.094377
v -0.270195 0.645059 -0.138571
v 0.125000 0.618750 -0.125000
v -0.187500 0.618750 -0.125000
v -0.187500 0.806250 -0.125000
v 0.125000 0.806250 -0.125000
v -0.187500 0.618750 0.187500
v 0.125000 0.618750 0.187500
v 0.125000 0.806250 0.187500
v -0.187500 0.806250 0.187500
v -0.312500 0.306250 -0.125000
v -0.372579 0.323477 -0.125000
v -0.286442 0.623872 -0.125000
v -0.226363 0.606644 -0.125000
v -0.372579 0.323477 0.187500
v -0.312500 0.306250 0.187500
v -0.226363 0.606644 0.187500
v -0.286442 0.623872 0.187500
v 0.187500 0.556250 -0.187500
v -0.250000 0.556250 -0.187500
v -0.250000 0.618750 -0.187500
v 0.187500 0.618750 -0.187500
v -0.250000 0.556250 0.250000
v 0.187500 0.556250 0.250000
v 0.187500 0.618750 0.250000
v -0.250000 0.618750 0.250000
v 0.132518 0.294068 -0.307582
v 0.090036 0.281887 -0.263388
v 0.003899 0.582281 -0.263388
v 0.046381 0.594463 -0.307582
v 0.259964 0.330613 -0.086612
v 0.302447 0.342795 -0.130806
v 0.216310 0.643189 -0.130806
v 0.173828 0.631007 -0.086612
v 0.125000 0.323477 -0.310079
v -0.187500 0.323477 -0.310079
v -0.187500 0.623872 -0.223942
v 0.125000 0.623872 -0.223942
v -0.187500 0.306250 -0.250000
v 0.125000 0.306250 -0.250000
v 0.125000 0.606644 -0.163863
v -0.187500 0.606644 -0.163863
v 0.310930 0.025000 0.196209
v 0.266735 0.025000 0.152015
v 0.266735 0.337500 0.152015
v 0.310930 0.337500 0.196209
v 0.089959 0.025000 0.328791
v 0.134153 0.025000 0.372985
v 0.134153 0.337500 0.372985
v 0.089959 0.337500 0.328791
v -0.325888 0.025000 0.149112
v -0.370082 0.025000 0.193306
v -0.370082 0.337500 0.193306
v -0.325888 0.337500 0.149112
v -0.193306 0.025000 0.370082
v -0.149112 0.025000 0.325888
v -0.149112 0.337500 0.325888
v -0.193306 0.337500 0.370082
vt 0.0156 0.8438
vt 0.0938 0.8438
vt 0.0938 0.9219
vt 0.0156 0.9219
vt 0.1094 0.8438
vt 0.1875 0.8438
vt 0.1875 0.9219
vt 0.1094 0.9219
vt 0.0938 0.9375
vt 0.0156 0.9375
vt 0.0938 0.9219
vt 0.1719 0.9219
vt 0.1719 0.9375
vt 0.0938 0.9375
vt 0.0000 0.8438
vt 0.0000 0.9219
vt 0.2656 0.6719
vt 0.2812 0.6719
vt 0.2812 0.7500
vt 0.2656 0.7500
vt 0.3438 0.6719
vt 0.3594 0.6719
vt 0.3594 0.7500
vt 0.3438 0.7500
vt 0.2812 0.8125
vt 0.2656 0.8125
vt 0.2812 0.7500
vt 0.2969 0.7500
vt 0.2969 0.8125
vt 0.2812 0.8125
vt 0.2031 0.6719
vt 0.2031 0.7500
vt 0.2969 0.8438
vt 0.3125 0.8438
vt 0.3125 0.9219
vt 0.2969 0.9219
vt 0.3906 0.8438
vt 0.4062 0.8438
vt 0.4062 0.9219
vt 0.3906 0.9219
vt 0.3125 1.0000
vt 0.2969 1.0000
vt 0.3125 0.9219
vt 0.3281 0.9219
vt 0.3281 1.0000
vt 0.3125 1.0000
vt 0.2188 0.8438
vt 0.2188 0.9219
vt 0.2656 0.6719
vt 0.2812 0.6719
vt 0.2812 0.7500
vt 0.2656 0.7500
vt 0.3438 0.6719
vt 0.3594 0.6719
vt 0.3594 0.7500
vt 0.3438 0.7500
vt 0.2812 0.8125
vt 0.2656 0.8125
vt 0.2812 0.7500
vt 0.2969 0.7500
vt 0.2969 0.8125
vt 0.2812 0.8125
vt 0.2031 0.6719
vt 0.2031 0.7500
vt 0.2344 0.8438
vt 0.3125 0.8438
vt 0.3125 0.9219
vt 0.2344 0.9219
vt 0.3281 0.8438
vt 0.4062 0.8438
vt 0.4062 0.9219
vt 0.3281 0.9219
vt 0.3125 0.9375
vt 0.2344 0.9375
vt 0.3125 0.9219
vt 0.3906 0.9219
vt 0.3906 0.9375
vt 0.3125 0.9375
vt 0.2188 0.8438
vt 0.2188 0.9219
vt 0.0625 0.6719
vt 0.0781 0.6719
vt 0.0781 0.7500
vt 0.0625 0.7500
vt 0.1406 0.6719
vt 0.1562 0.6719
vt 0.1562 0.7500
vt 0.1406 0.7500
vt 0.0781 0.8125
vt 0.0625 0.8125
vt 0.0781 0.7500
vt 0.0938 0.7500
vt 0.0938 0.8125
vt 0.0781 0.8125
vt 0.0000 0.6719
vt 0.0000 0.7500
vt 0.0625 0.6719
vt 0.0781 0.6719
vt 0.0781 0.7500
vt 0.0625 0.7500
vt 0.1406 0.6719
vt 0.1562 0.6719
vt 0.1562 0.7500
vt 0.1406 0.7500
vt 0.0781 0.8125
vt 0.0625 0.8125
vt 0.0781 0.7500
vt 0.0938 0.7500
vt 0.0938 0.8125
vt 0.0781 0.8125
vt 0.0000 0.6719
vt 0.0000 0.7500
vt 0.2969 0.8438
vt 0.3125 0.8438
vt 0.3125 0.9219
vt 0.2969 0.9219
vt 0.3906 0.8438
vt 0.4062 0.8438
vt 0.4062 0.9219
vt 0.3906 0.9219
vt 0.3125 1.0000
vt 0.2969 1.0000
vt 0.3125 0.9219
vt 0.3281 0.9219
vt 0.3281 1.0000
vt 0.3125 1.0000
vt 0.2188 0.8438
vt 0.2188 0.9219
vt 0.0781 0.8438
vt 0.0938 0.8438
vt 0.0938 0.9219
vt 0.0781 0.9219
vt 0.1719 0.8438
vt 0.1875 0.8438
vt 0.1875 0.9219
vt 0.1719 0.9219
vt 0.0938 1.0000
vt 0.0781 1.0000
vt 0.0938 0.9219
vt 0.1094 0.9219
vt 0.1094 1.0000
vt 0.0938 1.0000
vt 0.0000 0.8438
vt 0.0000 0.9219
vt 0.2344 0.8438
vt 0.3125 0.8438
vt 0.3125 0.9219
vt 0.2344 0.9219
vt 0.3281 0.8438
vt 0.4062 0.8438
vt 0.4062 0.9219
vt 0.3281 0.9219
vt 0.3125 0.9375
vt 0.2344 0.9375
vt 0.3125 0.9219
vt 0.3906 0.9219
vt 0.3906 0.9375
vt 0.3125 0.9375
vt 0.2188 0.8438
vt 0.2188 0.9219
vt 0.2656 0.6719
vt 0.2812 0.6719
vt 0.2812 0.7500
vt 0.2656 0.7500
vt 0.3438 0.6719
vt 0.3594 0.6719
vt 0.3594 0.7500
vt 0.3438 0.7500
vt 0.2812 0.8125
vt 0.2656 0.8125
vt 0.2812 0.7500
vt 0.2969 0.7500
vt 0.2969 0.8125
vt 0.2812 0.8125
vt 0.2031 0.6719
vt 0.2031 0.7500
vt 0.4219 0.1719
vt 0.5000 0.1719
vt 0.5000 0.2188
vt 0.4219 0.2188
vt 0.5781 0.1719
vt 0.6562 0.1719
vt 0.6562 0.2188
vt 0.5781 0.2188
vt 0.5000 0.2969
vt 0.4219 0.2969
vt 0.5000 0.2188
vt 0.5781 0.2188
vt 0.5781 0.2969
vt 0.5000 0.2969
vt 0.3438 0.1719
vt 0.3438 0.2188
vt 0.0781 0.8438
vt 0.0938 0.8438
vt 0.0938 0.9219
vt 0.0781 0.9219
vt 0.1719 0.8438
vt 0.1875 0.8438
vt 0.1875 0.9219
vt 0.1719 0.9219
vt 0.0938 1.0000
vt 0.0781 1.0000
vt 0.0938 0.9219
vt 0.1094 0.9219
vt 0.1094 1.0000
vt 0.0938 1.0000
vt 0.0000 0.8438
vt 0.0000 0.9219
vt 0.4531 0.3438
vt 0.5625 0.3438
vt 0.5625 0.3594
vt 0.4531 0.3594
vt 0.6719 0.3438
vt 0.7812 0.3438
vt 0.7812 0.3594
vt 0.6719 0.3594
vt 0.5625 0.4688
vt 0.4531 0.4688
vt 0.5625 0.3594
vt 0.6719 0.3594
vt 0.6719 0.4688
vt 0.5625 0.4688
vt 0.3438 0.3438
vt 0.3438 0.3594
vt 0.2656 0.6719
vt 0.2812 0.6719
vt 0.2812 0.7500
vt 0.2656 0.7500
vt 0.3438 0.6719
vt 0.3594 0.6719
vt 0.3594 0.7500
vt 0.3438 0.7500
vt 0.2812 0.8125
vt 0.2656 0.8125
vt 0.2812 0.7500
vt 0.2969 0.7500
vt 0.2969 0.8125
vt 0.2812 0.8125
vt 0.2031 0.6719
vt 0.2031 0.7500
vt 0.0156 0.8438
vt 0.0938 0.8438
vt 0.0938 0.9219
vt 0.0156 0.9219
vt 0.1094 0.8438
vt 0.1875 0.8438
vt 0.1875 0.9219
vt 0.1094 0.9219
vt 0.0938 0.9375
vt 0.0156 0.9375
vt 0.0938 0.9219
vt 0.1719 0.9219
vt 0.1719 0.9375
vt 0.0938 0.9375
vt 0.0000 0.8438
vt 0.0000 0.9219
vt 0.0625 0.6719
vt 0.0781 0.6719
vt 0.0781 0.7500
vt 0.0625 0.7500
vt 0.1406 0.6719
vt 0.1562 0.6719
vt 0.1562 0.7500
vt 0.1406 0.7500
vt 0.0781 0.8125
vt 0.0625 0.8125
vt 0.0781 0.7500
vt 0.0938 0.7500
vt 0.0938 0.8125
vt 0.0781 0.8125
vt 0.0000 0.6719
vt 0.0000 0.7500
vt 0.0625 0.6719
vt 0.0781 0.6719
vt 0.0781 0.7500
vt 0.0625 0.7500
vt 0.1406 0.6719
vt 0.1562 0.6719
vt 0.1562 0.7500
vt 0.1406 0.7500
vt 0.0781 0.8125
vt 0.0625 0.8125
vt 0.0781 0.7500
vt 0.0938 0.7500
vt 0.0938 0.8125
vt 0.0781 0.8125
vt 0.0000 0.6719
vt 0.0000 0.7500
vn 0.0000 -0.2756 -0.9613
vn 0.0000 0.2756 0.9613
vn 0.0000 0.9613 -0.2756
vn 0.0000 -0.9613 0.2756
vn 1.0000 0.0000 0.0000
vn -1.0000 0.0000 0.0000
vn 0.6797 0.1949 -0.7071
vn -0.6797 -0.1949 0.7071
vn -0.2756 0.9613 0.0000
vn 0.2756 -0.9613 -0.0000
vn 0.6797 0.1949 0.7071
vn -0.6797 -0.1949 -0.7071
vn 0.0000 0.0000 -1.0000
vn 0.0000 -0.0000 1.0000
vn 0.0000 1.0000 0.0000
vn 0.0000 -1.0000 -0.0000
vn -0.6797 0.1949 -0.7071
vn 0.6797 -0.1949 0.7071
vn 0.2756 0.9613 -0.0000
vn -0.2756 -0.9613 -0.0000
vn 0.6797 -0.1949 -0.7071
vn -0.6797 0.1949 0.7071
vn -0.7071 0.0000 -0.7071
vn 0.7071 -0.0000 0.7071
vn 0.7071 -0.0000 -0.7071
vn -0.7071 -0.0000 0.7071
vn 0.9613 0.2756 0.0000
vn -0.9613 -0.2756 -0.0000
vn 0.6697 -0.2283 -0.7067
vn -0.6697 0.2283 0.7067
vn 0.2992 0.9539 -0.0247
vn -0.2992 -0.9539 0.0247
vn 0.9613 -0.2756 -0.0000
vn -0.9613 0.2756 0.0000
vn 0.0000 0.2756 -0.9613
vn 0.0000 -0.2756 0.9613
vn 0.0000 0.9613 0.2756
vn 0.0000 -0.9613 -0.2756
usemtl None
f 1/1/1 2/2/1 3/3/1 4/4/1
f 5/5/2 6/6/2 7/7/2 8/8/2
f 4/4/3 3/3/3 8/9/3 7/10/3
f 6/11/4 5/12/4 2/13/4 1/14/4
f 6/15/5 1/1/5 4/4/5 7/16/5
f 2/2/6 5/5/6 8/8/6 3/3/6
f 9/17/7 10/18/7 11/19/7 12/20/7
f 13/21/8 14/22/8 15/23/8 16/24/8
f 12/20/9 11/19/9 16/25/9 15/26/9
f 14/27/10 13/28/10 10/29/10 9/30/10
f 14/31/11 9/17/11 12/20/11 15/32/11
f 10/18/12 13/21/12 16/24/12 11/19/12
f 17/33/13 18/34/13 19/35/13 20/36/13
f 21/37/14 22/38/14 23/39/14 24/40/14
f 20/36/15 19/35/15 24/41/15 23/42/15
f 22/43/16 21/44/16 18/45/16 17/46/16
f 22/47/5 17/33/5 20/36/5 23/48/5
f 18/34/6 21/37/6 24/40/6 19/35/6
f 25/49/17 26/50/17 27/51/17 28/52/17
f 29/53/18 30/54/18 31/55/18 32/56/18
f 28/52/19 27/51/19 32/57/19 31/58/19
f 30/59/20 29/60/20 26/61/20 25/62/20
f 30/63/21 25/49/21 28/52/21 31/64/21
f 26/50/22 29/53/22 32/56/22 27/51/22
f 33/65/13 34/66/13 35/67/13 36/68/13
f 37/69/14 38/70/14 39/71/14 40/72/14
f 36/68/15 35/67/15 40/73/15 39/74/15
f 38/75/16 37/76/16 34/77/16 33/78/16
f 38/79/5 33/65/5 36/68/5 39/80/5
f 34/66/6 37/69/6 40/72/6 35/67/6
f 41/81/23 42/82/23 43/83/23 44/84/23
f 45/85/24 46/86/24 47/87/24 48/88/24
f 44/84/15 43/83/15 48/89/15 47/90/15
f 46/91/16 45/92/16 42/93/16 41/94/16
f 46/95/25 41/81/25 44/84/25 47/96/25
f 42/82/26 45/85/26 48/88/26 43/83/26
f 49/97/25 50/98/25 51/99/25 52/100/25
f 53/101/26 54/102/26 55/103/26 56/104/26
f 52/100/15 51/99/15 56/105/15 55/106/15
f 54/107/16 53/108/16 50/109/16 49/110/16
f 54/111/24 49/97/24 52/100/24 55/112/24
f 50/98/23 53/101/23 56/104/23 51/99/23
f 57/113/13 58/114/13 59/115/13 60/116/13
f 61/117/14 62/118/14 63/119/14 64/120/14
f 60/116/15 59/115/15 64/121/15 63/122/15
f 62/123/16 61/124/16 58/125/16 57/126/16
f 62/127/5 57/113/5 60/116/5 63/128/5
f 58/114/6 61/117/6 64/120/6 59/115/6
f 65/129/13 66/130/13 67/131/13 68/132/13
f 69/133/14 70/134/14 71/135/14 72/136/14
f 68/132/9 67/131/9 72/137/9 71/138/9
f 70/139/10 69/140/10 66/141/10 65/142/10
f 70/143/27 65/129/27 68/132/27 71/144/27
f 66/130/28 69/133/28 72/136/28 67/131/28
f 73/145/13 74/146/13 75/147/13 76/148/13
f 77/149/14 78/150/14 79/151/14 80/152/14
f 76/148/15 75/147/15 80/153/15 79/154/15
f 78/155/16 77/156/16 74/157/16 73/158/16
f 78/159/5 73/145/5 76/148/5 79/160/5
f 74/146/6 77/149/6 80/152/6 75/147/6
f 81/161/29 82/162/29 83/163/29 84/164/29
f 85/165/30 86/166/30 87/167/30 88/168/30
f 84/164/31 83/163/31 88/169/31 87/170/31
f 86/171/32 85/172/32 82/173/32 81/174/32
f 86/175/18 81/161/18 84/164/18 87/176/18
f 82/162/17 85/165/17 88/168/17 83/163/17
f 89/177/13 90/178/13 91/179/13 92/180/13
f 93/181/14 94/182/14 95/183/14 96/184/14
f 92/180/15 91/179/15 96/185/15 95/186/15
f 94/187/16 93/188/16 90/189/16 89/190/16
f 94/191/5 89/177/5 92/180/5 95/192/5
f 90/178/6 93/181/6 96/184/6 91/179/6
f 97/193/13 98/194/13 99/195/13 100/196/13
f 101/197/14 102/198/14 103/199/14 104/200/14
f 100/196/19 99/195/19 104/201/19 103/202/19
f 102/203/20 101/204/20 98/205/20 97/206/20
f 102/207/33 97/193/33 100/196/33 103/208/33
f 98/194/34 101/197/34 104/200/34 99/195/34
f 105/209/13 106/210/13 107/211/13 108/212/13
f 109/213/14 110/214/14 111/215/14 112/216/14
f 108/212/15 107/211/15 112/217/15 111/218/15
f 110/219/16 109/220/16 106/221/16 105/222/16
f 110/223/5 105/209/5 108/212/5 111/224/5
f 106/210/6 109/213/6 112/216/6 107/211/6
f 113/225/12 114/226/12 115/227/12 116/228/12
f 117/229/11 118/230/11 119/231/11 120/232/11
f 116/228/9 115/227/9 120/233/9 119/234/9
f 118/235/10 117/236/10 114/237/10 113/238/10
f 118/239/7 113/225/7 116/228/7 119/240/7
f 114/226/8 117/229/8 120/232/8 115/227/8
f 121/241/35 122/242/35 123/243/35 124/244/35
f 125/245/36 126/246/36 127/247/36 128/248/36
f 124/244/37 123/243/37 128/249/37 127/250/37
f 126/251/38 125/252/38 122/253/38 121/254/38
f 126/255/5 121/241/5 124/244/5 127/256/5
f 122/242/6 125/245/6 128/248/6 123/243/6
f 129/257/25 130/258/25 131/259/25 132/260/25
f 133/261/26 134/262/26 135/263/26 136/264/26
f 132/260/15 131/259/15 136/265/15 135/266/15
f 134/267/16 133/268/16 130/269/16 129/270/16
f 134/271/24 129/257/24 132/260/24 135/272/24
f 130/258/23 133/261/23 136/264/23 131/259/23
f 137/273/23 138/274/23 139/275/23 140/276/23
f 141/277/24 142/278/24 143/279/24 144/280/24
f 140/276/15 139/275/15 144/281/15 143/282/15
f 142/283/16 141/284/16 138/285/16 137/286/16
f 142/287/25 137/273/25 140/276/25 143/288/25
f 138/274/26 141/277/26 144/280/26 139/275/26
