# Blender v2.78 (sub 0) OBJ File: ''
# www.blender.org
mtllib rp1_tank.mtl
o RP1Tank
v 0.562500 4.083289 0.549877
v -0.562500 4.083289 0.549877
v -0.562500 4.144423 0.562872
v 0.562500 4.144423 0.562872
v -0.562500 3.901366 1.405757
v 0.562500 3.901366 1.405757
v 0.562500 3.962500 1.418751
v -0.562500 3.962500 1.418751
v -0.592755 0.771911 -1.369501
v -1.388250 0.771911 -0.574005
v -1.378309 0.832810 -0.564064
v -0.582814 0.832809 -1.359559
v -0.785390 0.575079 0.028855
v 0.010105 0.575079 -0.766640
v 0.020047 0.635977 -0.756698
v -0.775448 0.635977 0.038797
v 0.558058 0.775000 -1.441942
v 0.513864 0.775000 -1.397748
v 0.513864 3.900000 -1.397747
v 0.558059 3.900000 -1.441941
v 1.397748 0.775000 -0.513864
v 1.441942 0.775000 -0.558058
v 1.441942 3.900000 -0.558057
v 1.397748 3.900000 -0.513863
v 1.437500 0.775000 -0.562500
v 1.375000 0.775000 -0.562500
v 1.375000 3.900000 -0.562499
v 1.437500 3.900000 -0.562499
v 1.375000 0.775000 0.562500
v 1.437500 0.775000 0.562500
v 1.437500 3.900000 0.562501
v 1.375000 3.900000 0.562501
v 0.029989 4.065625 0.765508
v -0.765506 4.065625 -0.029987
v -0.775448 4.126523 -0.020046
v 0.020047 4.126523 0.775449
v -1.368367 3.868793 0.572873
v -0.572872 3.868792 1.368368
v -0.582814 3.929690 1.378310
v -1.378309 3.929691 0.582815
v 1.441942 0.775000 0.558058
v 1.397748 0.775000 0.513864
v 1.397748 3.900000 0.513865
v 1.441942 3.900000 0.558059
v 0.513864 0.775000 1.397748
v 0.558058 0.775000 1.441942
v 0.558059 3.900000 1.441943
v 0.513864 3.900000 1.397749
v -0.510468 0.775000 -1.394318
v -0.554275 0.775000 -1.438896
v -0.554275 3.900000 -1.438895
v -0.510468 3.900000 -1.394317
v -1.445838 0.775000 -0.562760
v -1.402031 0.775000 -0.518182
v -1.402031 3.900000 -0.518181
v -1.445838 3.900000 -0.562759
v -0.594873 0.536238 0.562500
v -0.594873 0.536238 -0.562500
v -0.577646 0.596317 -0.562500
v -0.577646 0.596317 0.562500
v -1.435977 0.777421 -0.562500
v -1.435977 0.777421 0.562500
v -1.418750 0.837500 0.562500
v -1.418750 0.837500 -0.562500
v -0.572872 3.868792 -1.349616
v -1.368367 3.868793 -0.554121
v -1.378309 3.929691 -0.564063
v -0.582814 3.929690 -1.359558
v -0.765506 4.065625 0.048739
v 0.029989 4.065625 -0.746756
v 0.020047 4.126523 -0.756697
v -0.775448 4.126523 0.038798
v 0.759979 4.064548 -0.035515
v -0.035516 4.064548 0.759980
v -0.024824 4.125191 0.770672
v 0.770671 4.125191 -0.024824
v 0.564824 3.852866 1.360320
v 1.360319 3.852866 0.564825
v 1.371011 3.913509 0.575516
v 0.575516 3.913510 1.371011
v 1.438264 0.766977 -0.562500
v 0.589255 0.555295 -0.562500
v 0.574135 0.615938 -0.562500
v 1.423144 0.827620 -0.562500
v 0.589255 0.555295 0.562500
v 1.438264 0.766977 0.562500
v 1.423144 0.827620 0.562500
v 0.574135 0.615938 0.562500
v 0.562500 3.867986 -1.401772
v -0.562500 3.867986 -1.401772
v -0.562500 3.928630 -1.416892
v 0.562500 3.928630 -1.416892
v -0.562500 4.079668 -0.552764
v 0.562500 4.079668 -0.552764
v 0.562500 4.140311 -0.567884
v -0.562500 4.140311 -0.567884
v 1.369288 3.869621 -0.573791
v 0.573793 3.869621 -1.369286
v 0.582981 3.930755 -1.378475
v 1.378476 3.930755 -0.582980
v -0.031405 4.051544 -0.764088
v 0.764090 4.051544 0.031407
v 0.773278 4.112678 0.022218
v -0.022217 4.112678 -0.773277
v 0.562500 0.536238 0.594873
v -0.562500 0.536238 0.594873
v -0.562500 0.596317 0.577646
v 0.562500 0.596317 0.577646
v -0.562500 0.777421 1.435977
v 0.562500 0.777421 1.435977
v 0.562500 0.837500 1.418750
v -0.562500 0.837500 1.418750
v 0.781362 0.576665 -0.014133
v -0.014133 0.576665 0.781362
v -0.024825 0.637309 0.770671
v 0.770671 0.637308 -0.024825
v 0.586207 0.788347 1.381702
v 1.381702 0.788347 0.586207
v 1.371010 0.848990 0.575515
v 0.575515 0.848990 1.371010
v 0.562500 0.773227 -1.432014
v -0.562500 0.773227 -1.432014
v -0.562500 0.833870 -1.416893
v 0.562500 0.833870 -1.416893
v -0.562500 0.561545 -0.583005
v 0.562500 0.561545 -0.583005
v 0.562500 0.622188 -0.567885
v -0.562500 0.622189 -0.567885
v 0.625000 4.056250 -0.624999
v -0.625000 4.056250 -0.624999
v -0.625000 4.118750 -0.624999
v 0.625000 4.118750 -0.624999
v -0.625000 4.056250 0.625001
v 0.625000 4.056250 0.625001
v 0.625000 4.118750 0.625001
v -0.625000 4.118750 0.625001
v 0.010105 0.575079 0.785390
v -0.785390 0.575079 -0.010105
v -0.775448 0.635977 -0.020047
v 0.020047 0.635977 0.775448
v -1.388250 0.771911 0.592755
v -0.592755 0.771911 1.388251
v -0.582814 0.832809 1.378309
v -1.378309 0.832810 0.582814
v -1.398192 0.775000 0.514308
v -1.442386 0.775000 0.558502
v -1.442386 3.900000 0.558503
v -1.398191 3.900000 0.514309
v -0.558502 0.775000 1.442386
v -0.514308 0.775000 1.398192
v -0.514308 3.900000 1.398193
v -0.558502 3.900000 1.442387
v -0.549876 4.083289 0.562501
v -0.549876 4.083289 -0.562499
v -0.562871 4.144423 -0.562499
v -0.562871 4.144423 0.562501
v -1.405755 3.901366 -0.562499
v -1.405755 3.901366 0.562501
v -1.418750 3.962500 0.562501
v -1.418750 3.962500 -0.562499
v 0.625000 0.556250 -0.625000
v -0.625000 0.556250 -0.625000
v -0.625000 0.618750 -0.625000
v 0.625000 0.618750 -0.625000
v -0.625000 0.556250 0.625000
v 0.625000 0.556250 0.625000
v 0.625000 0.618750 0.625000
v -0.625000 0.618750 0.625000
v 0.562500 0.775000 1.375000
v -0.562500 0.775000 1.375000
v -0.562500 3.900000 1.375001
v 0.562500 3.900000 1.375001
v -0.562500 0.775000 1.437500
v 0.562500 0.775000 1.437500
v 0.562500 3.900000 1.437501
v -0.562500 3.900000 1.437501
v 1.408024 3.861736 -0.562499
v 0.559015 4.073418 -0.562499
v 0.574135 4.134061 -0.562499
v 1.423144 3.922380 -0.562499
v 0.559015 4.073418 0.562501
v 1.408024 3.861736 0.562501
v 1.423144 3.922380 0.562501
v 0.574135 4.134061 0.562501
v -1.375000 0.775000 0.562500
v -1.375000 0.775000 -0.562500
v -1.375000 3.900000 -0.562499
v -1.375000 3.900000 0.562501
v -1.437500 0.775000 -0.562500
v -1.437500 0.775000 0.562500
v -1.437500 3.900000 0.562501
v -1.437500 3.900000 -0.562499
v 0.562500 0.775000 -1.437500
v -0.562500 0.775000 -1.437500
v -0.562500 3.900000 -1.437499
v 0.562500 3.900000 -1.437499
v -0.562500 0.775000 -1.375000
v 0.562500 0.775000 -1.375000
v 0.562500 3.900000 -1.374999
v -0.562500 3.900000 -1.374999
v 1.387665 0.770610 -0.592169
v 0.592169 0.770610 -1.387664
v 0.582981 0.831744 -1.378476
v 1.378476 0.831744 -0.582981
v -0.013029 0.588687 -0.782467
v 0.782467 0.588687 0.013029
v 0.773278 0.649822 0.022217
v -0.022217 0.649822 -0.773278
v 0.218750 0.462500 -0.218750
v -0.218750 0.462500 -0.218750
v -0.218750 0.587500 -0.218750
v 0.218750 0.587500 -0.218750
v -0.218750 0.462500 0.218750
v 0.218750 0.462500 0.218750
v 0.218750 0.587500 0.218750
v -0.218750 0.587500 0.218750
vt 0.4609 0.8828
vt 0.6016 0.8828
vt 0.6016 0.8906
vt 0.4609 0.8906
vt 0.7109 0.8828
vt 0.8516 0.8828
vt 0.8516 0.8906
vt 0.7109 0.8906
vt 0.6016 1.0000
vt 0.4609 1.0000
vt 0.6016 0.8906
vt 0.7422 0.8906
vt 0.7422 1.0000
vt 0.6016 1.0000
vt 0.3516 0.8828
vt 0.3516 0.8906
vt 0.4609 0.7031
vt 0.6016 0.7031
vt 0.6016 0.7109
vt 0.4609 0.7109
vt 0.7109 0.7031
vt 0.8516 0.7031
vt 0.8516 0.7109
vt 0.7109 0.7109
vt 0.6016 0.8203
vt 0.4609 0.8203
vt 0.6016 0.7109
vt 0.7422 0.7109
vt 0.7422 0.8203
vt 0.6016 0.8203
vt 0.3516 0.7031
vt 0.3516 0.7109
vt 0.1562 0.4531
vt 0.1641 0.4531
vt 0.1641 0.8438
vt 0.1562 0.8438
vt 0.3203 0.4531
vt 0.3281 0.4531
vt 0.3281 0.8438
vt 0.3203 0.8438
vt 0.1641 1.0000
vt 0.1562 1.0000
vt 0.1641 0.8438
vt 0.1719 0.8438
vt 0.1719 1.0000
vt 0.1641 1.0000
vt 0.0000 0.4531
vt 0.0000 0.8438
vt 0.1406 0.4688
vt 0.1484 0.4688
vt 0.1484 0.8594
vt 0.1406 0.8594
vt 0.2891 0.4688
vt 0.2969 0.4688
vt 0.2969 0.8594
vt 0.2891 0.8594
vt 0.1484 1.0000
vt 0.1406 1.0000
vt 0.1484 0.8594
vt 0.1562 0.8594
vt 0.1562 1.0000
vt 0.1484 1.0000
vt 0.0000 0.4688
vt 0.0000 0.8594
vt 0.4609 0.7031
vt 0.6016 0.7031
vt 0.6016 0.7109
vt 0.4609 0.7109
vt 0.7109 0.7031
vt 0.8516 0.7031
vt 0.8516 0.7109
vt 0.7109 0.7109
vt 0.6016 0.8203
vt 0.4609 0.8203
vt 0.6016 0.7109
vt 0.7422 0.7109
vt 0.7422 0.8203
vt 0.6016 0.8203
vt 0.3516 0.7031
vt 0.3516 0.7109
vt 0.1562 0.4531
vt 0.1641 0.4531
vt 0.1641 0.8438
vt 0.1562 0.8438
vt 0.3203 0.4531
vt 0.3281 0.4531
vt 0.3281 0.8438
vt 0.3203 0.8438
vt 0.1641 1.0000
vt 0.1562 1.0000
vt 0.1641 0.8438
vt 0.1719 0.8438
vt 0.1719 1.0000
vt 0.1641 1.0000
vt 0.0000 0.4531
vt 0.0000 0.8438
vt 0.1562 0.4531
vt 0.1641 0.4531
vt 0.1641 0.8438
vt 0.1562 0.8438
vt 0.3203 0.4531
vt 0.3281 0.4531
vt 0.3281 0.8438
vt 0.3203 0.8438
vt 0.1641 1.0000
vt 0.1562 1.0000
vt 0.1641 0.8438
vt 0.1719 0.8438
vt 0.1719 1.0000
vt 0.1641 1.0000
vt 0.0000 0.4531
vt 0.0000 0.8438
vt 0.4609 0.8828
vt 0.6016 0.8828
vt 0.6016 0.8906
vt 0.4609 0.8906
vt 0.7109 0.8828
vt 0.8516 0.8828
vt 0.8516 0.8906
vt 0.7109 0.8906
vt 0.6016 1.0000
vt 0.4609 1.0000
vt 0.6016 0.8906
vt 0.7422 0.8906
vt 0.7422 1.0000
vt 0.6016 1.0000
vt 0.3516 0.8828
vt 0.3516 0.8906
vt 0.4609 0.7031
vt 0.6016 0.7031
vt 0.6016 0.7109
vt 0.4609 0.7109
vt 0.7109 0.7031
vt 0.8516 0.7031
vt 0.8516 0.7109
vt 0.7109 0.7109
vt 0.6016 0.8203
vt 0.4609 0.8203
vt 0.6016 0.7109
vt 0.7422 0.7109
vt 0.7422 0.8203
vt 0.6016 0.8203
vt 0.3516 0.7031
vt 0.3516 0.7109
vt 0.4609 0.7031
vt 0.6016 0.7031
vt 0.6016 0.7109
vt 0.4609 0.7109
vt 0.7109 0.7031
vt 0.8516 0.7031
vt 0.8516 0.7109
vt 0.7109 0.7109
vt 0.6016 0.8203
vt 0.4609 0.8203
vt 0.6016 0.7109
vt 0.7422 0.7109
vt 0.7422 0.8203
vt 0.6016 0.8203
vt 0.3516 0.7031
vt 0.3516 0.7109
vt 0.4922 0.8516
vt 0.6016 0.8516
vt 0.6016 0.8594
vt 0.4922 0.8594
vt 0.7422 0.8516
vt 0.8516 0.8516
vt 0.8516 0.8594
vt 0.7422 0.8594
vt 0.6016 1.0000
vt 0.4922 1.0000
vt 0.6016 0.8594
vt 0.7109 0.8594
vt 0.7109 1.0000
vt 0.6016 1.0000
vt 0.3516 0.8516
vt 0.3516 0.8594
vt 0.4609 0.8828
vt 0.6016 0.8828
vt 0.6016 0.8906
vt 0.4609 0.8906
vt 0.7109 0.8828
vt 0.8516 0.8828
vt 0.8516 0.8906
vt 0.7109 0.8906
vt 0.6016 1.0000
vt 0.4609 1.0000
vt 0.6016 0.8906
vt 0.7422 0.8906
vt 0.7422 1.0000
vt 0.6016 1.0000
vt 0.3516 0.8828
vt 0.3516 0.8906
vt 0.4609 0.7031
vt 0.6016 0.7031
vt 0.6016 0.7109
vt 0.4609 0.7109
vt 0.7109 0.7031
vt 0.8516 0.7031
vt 0.8516 0.7109
vt 0.7109 0.7109
vt 0.6016 0.8203
vt 0.4609 0.8203
vt 0.6016 0.7109
vt 0.7422 0.7109
vt 0.7422 0.8203
vt 0.6016 0.8203
vt 0.3516 0.7031
vt 0.3516 0.7109
vt 0.4609 0.8828
vt 0.6016 0.8828
vt 0.6016 0.8906
vt 0.4609 0.8906
vt 0.7109 0.8828
vt 0.8516 0.8828
vt 0.8516 0.8906
vt 0.7109 0.8906
vt 0.6016 1.0000
vt 0.4609 1.0000
vt 0.6016 0.8906
vt 0.7422 0.8906
vt 0.7422 1.0000
vt 0.6016 1.0000
vt 0.3516 0.8828
vt 0.3516 0.8906
vt 0.4609 0.7031
vt 0.6016 0.7031
vt 0.6016 0.7109
vt 0.4609 0.7109
vt 0.7109 0.7031
vt 0.8516 0.7031
vt 0.8516 0.7109
vt 0.7109 0.7109
vt 0.6016 0.8203
vt 0.4609 0.8203
vt 0.6016 0.7109
vt 0.7422 0.7109
vt 0.7422 0.8203
vt 0.6016 0.8203
vt 0.3516 0.7031
vt 0.3516 0.7109
vt 0.4609 0.8828
vt 0.6016 0.8828
vt 0.6016 0.8906
vt 0.4609 0.8906
vt 0.7109 0.8828
vt 0.8516 0.8828
vt 0.8516 0.8906
vt 0.7109 0.8906
vt 0.6016 1.0000
vt 0.4609 1.0000
vt 0.6016 0.8906
vt 0.7422 0.8906
vt 0.7422 1.0000
vt 0.6016 1.0000
vt 0.3516 0.8828
vt 0.3516 0.8906
vt 0.1562 0.0000
vt 0.3125 0.0000
vt 0.3125 0.0078
vt 0.1562 0.0078
vt 0.4688 0.0000
vt 0.6250 0.0000
vt 0.6250 0.0078
vt 0.4688 0.0078
vt 0.3125 0.1641
vt 0.1562 0.1641
vt 0.3125 0.0078
vt 0.4688 0.0078
vt 0.4688 0.1641
vt 0.3125 0.1641
vt 0.0000 0.0000
vt 0.0000 0.0078
vt 0.4609 0.7031
vt 0.6016 0.7031
vt 0.6016 0.7109
vt 0.4609 0.7109
vt 0.7109 0.7031
vt 0.8516 0.7031
vt 0.8516 0.7109
vt 0.7109 0.7109
vt 0.6016 0.8203
vt 0.4609 0.8203
vt 0.6016 0.7109
vt 0.7422 0.7109
vt 0.7422 0.8203
vt 0.6016 0.8203
vt 0.3516 0.7031
vt 0.3516 0.7109
vt 0.1562 0.4531
vt 0.1641 0.4531
vt 0.1641 0.8438
vt 0.1562 0.8438
vt 0.3203 0.4531
vt 0.3281 0.4531
vt 0.3281 0.8438
vt 0.3203 0.8438
vt 0.1641 1.0000
vt 0.1562 1.0000
vt 0.1641 0.8438
vt 0.1719 0.8438
vt 0.1719 1.0000
vt 0.1641 1.0000
vt 0.0000 0.4531
vt 0.0000 0.8438
vt 0.4609 0.8828
vt 0.6016 0.8828
vt 0.6016 0.8906
vt 0.4609 0.8906
vt 0.7109 0.8828
vt 0.8516 0.8828
vt 0.8516 0.8906
vt 0.7109 0.8906
vt 0.6016 1.0000
vt 0.4609 1.0000
vt 0.6016 0.8906
vt 0.7422 0.8906
vt 0.7422 1.0000
vt 0.6016 1.0000
vt 0.3516 0.8828
vt 0.3516 0.8906
vt 0.1562 0.0000
vt 0.3125 0.0000
vt 0.3125 0.0078
vt 0.1562 0.0078
vt 0.4688 0.0000
vt 0.6250 0.0000
vt 0.6250 0.0078
vt 0.4688 0.0078
vt 0.3125 0.1641
vt 0.1562 0.1641
vt 0.3125 0.0078
vt 0.4688 0.0078
vt 0.4688 0.1641
vt 0.3125 0.1641
vt 0.0000 0.0000
vt 0.0000 0.0078
vt 0.0078 0.6016
vt 0.1484 0.6016
vt 0.1484 0.9922
vt 0.0078 0.9922
vt 0.1562 0.6016
vt 0.2969 0.6016
vt 0.2969 0.9922
vt 0.1562 0.9922
vt 0.1484 1.0000
vt 0.0078 1.0000
vt 0.1484 0.9922
vt 0.2891 0.9922
vt 0.2891 1.0000
vt 0.1484 1.0000
vt 0.0000 0.6016
vt 0.0000 0.9922
vt 0.4922 0.8516
vt 0.6016 0.8516
vt 0.6016 0.8594
vt 0.4922 0.8594
vt 0.7422 0.8516
vt 0.8516 0.8516
vt 0.8516 0.8594
vt 0.7422 0.8594
vt 0.6016 1.0000
vt 0.4922 1.0000
vt 0.6016 0.8594
vt 0.7109 0.8594
vt 0.7109 1.0000
vt 0.6016 1.0000
vt 0.3516 0.8516
vt 0.3516 0.8594
vt 0.0078 0.6016
vt 0.1484 0.6016
vt 0.1484 0.9922
vt 0.0078 0.9922
vt 0.1562 0.6016
vt 0.2969 0.6016
vt 0.2969 0.9922
vt 0.1562 0.9922
vt 0.1484 1.0000
vt 0.0078 1.0000
vt 0.1484 0.9922
vt 0.2891 0.9922
vt 0.2891 1.0000
vt 0.1484 1.0000
vt 0.0000 0.6016
vt 0.0000 0.9922
vt 0.0078 0.6016
vt 0.1484 0.6016
vt 0.1484 0.9922
vt 0.0078 0.9922
vt 0.1562 0.6016
vt 0.2969 0.6016
vt 0.2969 0.9922
vt 0.1562 0.9922
vt 0.1484 1.0000
vt 0.0078 1.0000
vt 0.1484 0.9922
vt 0.2891 0.9922
vt 0.2891 1.0000
vt 0.1484 1.0000
vt 0.0000 0.6016
vt 0.0000 0.9922
vt 0.4609 0.7031
vt 0.6016 0.7031
vt 0.6016 0.7109
vt 0.4609 0.7109
vt 0.7109 0.7031
vt 0.8516 0.7031
vt 0.8516 0.7109
vt 0.7109 0.7109
vt 0.6016 0.8203
vt 0.4609 0.8203
vt 0.6016 0.7109
vt 0.7422 0.7109
vt 0.7422 0.8203
vt 0.6016 0.8203
vt 0.3516 0.7031
vt 0.3516 0.7109
vt 0.4453 0.5391
vt 0.5000 0.5391
vt 0.5000 0.5547
vt 0.4453 0.5547
vt 0.5547 0.5391
vt 0.6094 0.5391
vt 0.6094 0.5547
vt 0.5547 0.5547
vt 0.5000 0.6094
vt 0.4453 0.6094
vt 0.5000 0.5547
vt 0.5547 0.5547
vt 0.5547 0.6094
vt 0.5000 0.6094
vt 0.3906 0.5391
vt 0.3906 0.5547
vn 0.0000 0.2079 -0.9781
vn 0.0000 -0.2079 0.9781
vn 0.0000 0.9781 0.2079
vn 0.0000 -0.9781 -0.2079
vn 1.0000 0.0000 0.0000
vn -1.0000 -0.0000 0.0000
vn -0.6890 0.2249 -0.6890
vn 0.6890 -0.2250 0.6890
vn 0.1591 0.9744 0.1591
vn -0.1591 -0.9744 -0.1591
vn 0.7071 0.0000 -0.7071
vn -0.7071 0.0000 0.7071
vn -0.7071 0.0000 -0.7071
vn 0.7071 -0.0000 0.7071
vn 0.0000 1.0000 -0.0000
vn 0.0000 -1.0000 -0.0000
vn 0.0000 0.0000 -1.0000
vn 0.0000 -0.0000 1.0000
vn 0.6890 0.2250 -0.6890
vn -0.6890 -0.2250 0.6890
vn -0.1591 0.9744 0.1591
vn 0.1591 -0.9744 -0.1591
vn 0.7132 0.0000 -0.7009
vn -0.7132 -0.0000 0.7009
vn 0.7009 -0.0000 0.7133
vn -0.7009 0.0000 -0.7133
vn 0.9613 -0.2756 -0.0000
vn -0.9613 0.2756 0.0000
vn 0.2756 0.9613 0.0000
vn -0.2756 -0.9613 -0.0000
vn -0.6890 -0.2250 -0.6890
vn 0.6890 0.2250 0.6890
vn -0.1591 0.9744 -0.1591
vn 0.1591 -0.9744 0.1591
vn -0.6861 0.2419 -0.6861
vn 0.6861 -0.2419 0.6861
vn 0.1711 0.9703 0.1711
vn -0.1711 -0.9703 -0.1711
vn -0.2419 0.9703 0.0000
vn 0.2419 -0.9703 -0.0000
vn 0.9703 0.2419 0.0000
vn -0.9703 -0.2419 -0.0000
vn 0.0000 -0.2419 -0.9703
vn 0.0000 0.2419 0.9703
vn 0.0000 0.9703 -0.2419
vn 0.0000 -0.9703 0.2419
vn 0.6917 -0.2079 -0.6917
vn -0.6917 0.2079 0.6917
vn 0.1470 0.9781 -0.1470
vn -0.1470 -0.9781 0.1470
vn 0.0000 -0.2756 -0.9613
vn 0.0000 0.2756 0.9613
vn 0.0000 0.9613 -0.2756
vn 0.0000 -0.9613 0.2756
vn -0.6861 -0.2419 -0.6861
vn 0.6861 0.2419 0.6861
vn -0.1711 0.9703 -0.1711
vn 0.1711 -0.9703 0.1711
vn 0.0000 0.2419 -0.9703
vn -0.0000 -0.2419 0.9703
vn 0.0000 0.9703 0.2419
vn 0.0000 -0.9703 -0.2419
vn 0.6890 -0.2250 -0.6890
vn -0.6890 0.2249 0.6890
vn 0.1591 0.9744 -0.1591
vn -0.1591 -0.9744 0.1591
vn 0.9781 0.2079 0.0000
vn -0.9781 -0.2079 0.0000
vn -0.2079 0.9781 0.0000
vn 0.2079 -0.9781 0.0000
vn 0.2419 0.9703 0.0000
vn -0.2419 -0.9703 0.0000
vn 0.9703 -0.2419 0.0000
vn -0.9703 0.2419 0.0000
vn 0.6917 0.2079 -0.6917
vn -0.6917 -0.2079 0.6917
vn -0.1470 0.9781 0.1470
vn 0.1470 -0.9781 -0.1470
usemtl None
f 1/1/1 2/2/1 3/3/1 4/4/1
f 5/5/2 6/6/2 7/7/2 8/8/2
f 4/4/3 3/3/3 8/9/3 7/10/3
f 6/11/4 5/12/4 2/13/4 1/14/4
f 6/15/5 1/1/5 4/4/5 7/16/5
f 2/2/6 5/5/6 8/8/6 3/3/6
f 9/17/7 10/18/7 11/19/7 12/20/7
f 13/21/8 14/22/8 15/23/8 16/24/8
f 12/20/9 11/19/9 16/25/9 15/26/9
f 14/27/10 13/28/10 10/29/10 9/30/10
f 14/31/11 9/17/11 12/20/11 15/32/11
f 10/18/12 13/21/12 16/24/12 11/19/12
f 17/33/13 18/34/13 19/35/13 20/36/13
f 21/37/14 22/38/14 23/39/14 24/40/14
f 20/36/15 19/35/15 24/41/15 23/42/15
f 22/43/16 21/44/16 18/45/16 17/46/16
f 22/47/11 17/33/11 20/36/11 23/48/11
f 18/34/12 21/37/12 24/40/12 19/35/12
f 25/49/17 26/50/17 27/51/17 28/52/17
f 29/53/18 30/54/18 31/55/18 32/56/18
f 28/52/15 27/51/15 32/57/15 31/58/15
f 30/59/16 29/60/16 26/61/16 25/62/16
f 30/63/5 25/49/5 28/52/5 31/64/5
f 26/50/6 29/53/6 32/56/6 27/51/6
f 33/65/19 34/66/19 35/67/19 36/68/19
f 37/69/20 38/70/20 39/71/20 40/72/20
f 36/68/21 35/67/21 40/73/21 39/74/21
f 38/75/22 37/76/22 34/77/22 33/78/22
f 38/79/14 33/65/14 36/68/14 39/80/14
f 34/66/13 37/69/13 40/72/13 35/67/13
f 41/81/11 42/82/11 43/83/11 44/84/11
f 45/85/12 46/86/12 47/87/12 48/88/12
f 44/84/15 43/83/15 48/89/15 47/90/15
f 46/91/16 45/92/16 42/93/16 41/94/16
f 46/95/14 41/81/14 44/84/14 47/96/14
f 42/82/13 45/85/13 48/88/13 43/83/13
f 49/97/23 50/98/23 51/99/23 52/100/23
f 53/101/24 54/102/24 55/103/24 56/104/24
f 52/100/15 51/99/15 56/105/15 55/106/15
f 54/107/16 53/108/16 50/109/16 49/110/16
f 54/111/25 49/97/25 52/100/25 55/112/25
f 50/98/26 53/101/26 56/104/26 51/99/26
f 57/113/27 58/114/27 59/115/27 60/116/27
f 61/117/28 62/118/28 63/119/28 64/120/28
f 60/116/29 59/115/29 64/121/29 63/122/29
f 62/123/30 61/124/30 58/125/30 57/126/30
f 62/127/18 57/113/18 60/116/18 63/128/18
f 58/114/17 61/117/17 64/120/17 59/115/17
f 65/129/31 66/130/31 67/131/31 68/132/31
f 69/133/32 70/134/32 71/135/32 72/136/32
f 68/132/33 67/131/33 72/137/33 71/138/33
f 70/139/34 69/140/34 66/141/34 65/142/34
f 70/143/11 65/129/11 68/132/11 71/144/11
f 66/130/12 69/133/12 72/136/12 67/131/12
f 73/145/35 74/146/35 75/147/35 76/148/35
f 77/149/36 78/150/36 79/151/36 80/152/36
f 76/148/37 75/147/37 80/153/37 79/154/37
f 78/155/38 77/156/38 74/157/38 73/158/38
f 78/159/11 73/145/11 76/148/11 79/160/11
f 74/146/12 77/149/12 80/152/12 75/147/12
f 81/161/17 82/162/17 83/163/17 84/164/17
f 85/165/18 86/166/18 87/167/18 88/168/18
f 84/164/39 83/163/39 88/169/39 87/170/39
f 86/171/40 85/172/40 82/173/40 81/174/40
f 86/175/41 81/161/41 84/164/41 87/176/41
f 82/162/42 85/165/42 88/168/42 83/163/42
f 89/177/43 90/178/43 91/179/43 92/180/43
f 93/181/44 94/182/44 95/183/44 96/184/44
f 92/180/45 91/179/45 96/185/45 95/186/45
f 94/187/46 93/188/46 90/189/46 89/190/46
f 94/191/5 89/177/5 92/180/5 95/192/5
f 90/178/6 93/181/6 96/184/6 91/179/6
f 97/193/47 98/194/47 99/195/47 100/196/47
f 101/197/48 102/198/48 103/199/48 104/200/48
f 100/196/49 99/195/49 104/201/49 103/202/49
f 102/203/50 101/204/50 98/205/50 97/206/50
f 102/207/14 97/193/14 100/196/14 103/208/14
f 98/194/13 101/197/13 104/200/13 99/195/13
f 105/209/51 106/210/51 107/211/51 108/212/51
f 109/213/52 110/214/52 111/215/52 112/216/52
f 108/212/53 107/211/53 112/217/53 111/218/53
f 110/219/54 109/220/54 106/221/54 105/222/54
f 110/223/5 105/209/5 108/212/5 111/224/5
f 106/210/6 109/213/6 112/216/6 107/211/6
f 113/225/55 114/226/55 115/227/55 116/228/55
f 117/229/56 118/230/56 119/231/56 120/232/56
f 116/228/57 115/227/57 120/233/57 119/234/57
f 118/235/58 117/236/58 114/237/58 113/238/58
f 118/239/11 113/225/11 116/228/11 119/240/11
f 114/226/12 117/229/12 120/232/12 115/227/12
f 121/241/59 122/242/59 123/243/59 124/244/59
f 125/245/60 126/246/60 127/247/60 128/248/60
f 124/244/61 123/243/61 128/249/61 127/250/61
f 126/251/62 125/252/62 122/253/62 121/254/62
f 126/255/5 121/241/5 124/244/5 127/256/5
f 122/242/6 125/245/6 128/248/6 123/243/6
f 129/257/17 130/258/17 131/259/17 132/260/17
f 133/261/18 134/262/18 135/263/18 136/264/18
f 132/260/15 131/259/15 136/265/15 135/266/15
f 134/267/16 133/268/16 130/269/16 129/270/16
f 134/271/5 129/257/5 132/260/5 135/272/5
f 130/258/6 133/261/6 136/264/6 131/259/6
f 137/273/63 138/274/63 139/275/63 140/276/63
f 141/277/64 142/278/64 143/279/64 144/280/64
f 140/276/65 139/275/65 144/281/65 143/282/65
f 142/283/66 141/284/66 138/285/66 137/286/66
f 142/287/14 137/273/14 140/276/14 143/288/14
f 138/274/13 141/277/13 144/280/13 139/275/13
f 145/289/13 146/290/13 147/291/13 148/292/13
f 149/293/14 150/294/14 151/295/14 152/296/14
f 148/292/15 147/291/15 152/297/15 151/298/15
f 150/299/16 149/300/16 146/301/16 145/302/16
f 150/303/11 145/289/11 148/292/11 151/304/11
f 146/290/12 149/293/12 152/296/12 147/291/12
f 153/305/67 154/306/67 155/307/67 156/308/67
f 157/309/68 158/310/68 159/311/68 160/312/68
f 156/308/69 155/307/69 160/313/69 159/314/69
f 158/315/70 157/316/70 154/317/70 153/318/70
f 158/319/18 153/305/18 156/308/18 159/320/18
f 154/306/17 157/309/17 160/312/17 155/307/17
f 161/321/17 162/322/17 163/323/17 164/324/17
f 165/325/18 166/326/18 167/327/18 168/328/18
f 164/324/15 163/323/15 168/329/15 167/330/15
f 166/331/16 165/332/16 162/333/16 161/334/16
f 166/335/5 161/321/5 164/324/5 167/336/5
f 162/322/6 165/325/6 168/328/6 163/323/6
f 169/337/17 170/338/17 171/339/17 172/340/17
f 173/341/18 174/342/18 175/343/18 176/344/18
f 172/340/15 171/339/15 176/345/15 175/346/15
f 174/347/16 173/348/16 170/349/16 169/350/16
f 174/351/5 169/337/5 172/340/5 175/352/5
f 170/338/6 173/341/6 176/344/6 171/339/6
f 177/353/17 178/354/17 179/355/17 180/356/17
f 181/357/18 182/358/18 183/359/18 184/360/18
f 180/356/71 179/355/71 184/361/71 183/362/71
f 182/363/72 181/364/72 178/365/72 177/366/72
f 182/367/73 177/353/73 180/356/73 183/368/73
f 178/354/74 181/357/74 184/360/74 179/355/74
f 185/369/5 186/370/5 187/371/5 188/372/5
f 189/373/6 190/374/6 191/375/6 192/376/6
f 188/372/15 187/371/15 192/377/15 191/378/15
f 190/379/16 189/380/16 186/381/16 185/382/16
f 190/383/18 185/369/18 188/372/18 191/384/18
f 186/370/17 189/373/17 192/376/17 187/371/17
f 193/385/17 194/386/17 195/387/17 196/388/17
f 197/389/18 198/390/18 199/391/18 200/392/18
f 196/388/15 195/387/15 200/393/15 199/394/15
f 198/395/16 197/396/16 194/397/16 193/398/16
f 198/399/5 193/385/5 196/388/5 199/400/5
f 194/386/6 197/389/6 200/392/6 195/387/6
f 201/401/75 202/402/75 203/403/75 204/404/75
f 205/405/76 206/406/76 207/407/76 208/408/76
f 204/404/77 203/403/77 208/409/77 207/410/77
f 206/411/78 205/412/78 202/413/78 201/414/78
f 206/415/14 201/401/14 204/404/14 207/416/14
f 202/402/13 205/405/13 208/408/13 203/403/13
f 209/417/17 210/418/17 211/419/17 212/420/17
f 213/421/18 214/422/18 215/423/18 216/424/18
f 212/420/15 211/419/15 216/425/15 215/426/15
f 214/427/16 213/428/16 210/429/16 209/430/16
f 214/431/5 209/417/5 212/420/5 215/432/5
f 210/418/6 213/421/6 216/424/6 211/419/6
