mtllib seat.mtl
o Seat
v 0.375120 0.105689 -0.259102
v -0.617147 -0.018427 -0.259057
v -0.624904 0.043586 -0.259752
v 0.367363 0.167703 -0.259798
v -0.617815 -0.012902 0.240912
v 0.374452 0.111215 0.240867
v 0.366695 0.173228 0.240171
v -0.625572 0.049112 0.240216
v 0.394036 0.116767 -0.260935
v 0.338802 0.145985 -0.259592
v 0.484915 0.422222 -0.260017
v 0.540149 0.393004 -0.261360
v 0.348615 0.141564 0.240292
v 0.403849 0.112346 0.238949
v 0.549962 0.388583 0.238524
v 0.494728 0.417801 0.239866
v 0.390953 0.108802 -0.262965
v 0.239658 0.161039 -0.360625
v 0.368997 0.440973 -0.411263
v 0.520292 0.388736 -0.313604
v 0.213319 0.182685 -0.308242
v 0.364614 0.130447 -0.210582
v 0.493953 0.410382 -0.261221
v 0.342658 0.462618 -0.358880
v 0.373963 0.124478 0.188238
v 0.227510 0.180283 0.291163
v 0.354046 0.464856 0.316921
v 0.500498 0.409051 0.213995
v 0.257219 0.162368 0.343151
v 0.403672 0.106563 0.240225
v 0.530208 0.391135 0.265983
v 0.383755 0.446940 0.368908
v -0.714245 0.166984 0.239485
v -0.756836 0.121265 0.240924
v -0.619657 -0.006553 0.240156
v -0.577066 0.039166 0.238717
v -0.766181 0.114241 -0.258939
v -0.723590 0.159960 -0.260378
v -0.586411 0.032142 -0.261146
v -0.629002 -0.013577 -0.259707
vt 0.8242 0.4258
vt 0.8867 0.4258
vt 0.8867 0.4297
vt 0.8242 0.4297
vt 0.9180 0.4258
vt 0.9805 0.4258
vt 0.9805 0.4297
vt 0.9180 0.4297
vt 0.8867 0.4609
vt 0.8242 0.4609
vt 0.8867 0.4297
vt 0.9492 0.4297
vt 0.9492 0.4609
vt 0.8867 0.4609
vt 0.7930 0.4258
vt 0.7930 0.4297
vt 0.8438 0.5000
vt 0.8477 0.5000
vt 0.8477 0.5195
vt 0.8438 0.5195
vt 0.8789 0.5000
vt 0.8828 0.5000
vt 0.8828 0.5195
vt 0.8789 0.5195
vt 0.8477 0.5508
vt 0.8438 0.5508
vt 0.8477 0.5195
vt 0.8516 0.5195
vt 0.8516 0.5508
vt 0.8477 0.5508
vt 0.8125 0.5000
vt 0.8125 0.5195
vt 0.8438 0.4688
vt 0.8555 0.4688
vt 0.8555 0.4883
vt 0.8438 0.4883
vt 0.8594 0.4688
vt 0.8711 0.4688
vt 0.8711 0.4883
vt 0.8594 0.4883
vt 0.8555 0.4922
vt 0.8438 0.4922
vt 0.8555 0.4883
vt 0.8672 0.4883
vt 0.8672 0.4922
vt 0.8555 0.4922
vt 0.8398 0.4688
vt 0.8398 0.4883
vt 0.8906 0.4688
vt 0.9023 0.4688
vt 0.9023 0.4883
vt 0.8906 0.4883
vt 0.9062 0.4688
vt 0.9180 0.4688
vt 0.9180 0.4883
vt 0.9062 0.4883
vt 0.9023 0.4922
vt 0.8906 0.4922
vt 0.9023 0.4883
vt 0.9141 0.4883
vt 0.9141 0.4922
vt 0.9023 0.4922
vt 0.8867 0.4688
vt 0.8867 0.4883
vt 0.6953 0.4336
vt 0.6992 0.4336
vt 0.6992 0.4453
vt 0.6953 0.4453
vt 0.7305 0.4336
vt 0.7344 0.4336
vt 0.7344 0.4453
vt 0.7305 0.4453
vt 0.6992 0.4766
vt 0.6953 0.4766
vt 0.6992 0.4453
vt 0.7031 0.4453
vt 0.7031 0.4766
vt 0.6992 0.4766
vt 0.6641 0.4336
vt 0.6641 0.4453
vn 0.0013 -0.0110 -0.9999
vn -0.0013 0.0111 0.9999
vn -0.1241 0.9922 -0.0111
vn 0.1241 -0.9922 0.0111
vn 0.9923 0.1241 -0.0000
vn -0.9923 -0.1241 0.0000
vn -0.0196 0.0088 -0.9998
vn 0.0196 -0.0088 0.9998
vn 0.4676 0.8840 -0.0014
vn -0.4676 -0.8840 0.0014
vn 0.8837 -0.4675 -0.0215
vn -0.8837 0.4675 0.0215
vn 0.4214 -0.3463 -0.8381
vn -0.4214 0.3463 0.8381
vn 0.4139 0.8958 -0.1620
vn -0.4139 -0.8958 0.1620
vn 0.8069 -0.2786 0.5208
vn -0.8069 0.2786 -0.5208
vn -0.4753 0.2867 -0.8318
vn 0.4753 -0.2867 0.8318
vn 0.4049 0.9106 0.0824
vn -0.4049 -0.9106 -0.0824
vn 0.7811 -0.2976 -0.5489
vn -0.7811 0.2976 0.5489
vn 0.0187 0.0141 0.9997
vn -0.0187 -0.0141 -0.9997
vn 0.7316 -0.6817 -0.0041
vn -0.7316 0.6817 0.0041
vn 0.6815 0.7315 -0.0230
vn -0.6815 -0.7315 0.0230
usemtl None
f 1/1/1 2/2/1 3/3/1 4/4/1
f 5/5/2 6/6/2 7/7/2 8/8/2
f 4/4/3 3/3/3 8/9/3 7/10/3
f 6/11/4 5/12/4 2/13/4 1/14/4
f 6/15/5 1/1/5 4/4/5 7/16/5
f 2/2/6 5/5/6 8/8/6 3/3/6
f 9/17/7 10/18/7 11/19/7 12/20/7
f 13/21/8 14/22/8 15/23/8 16/24/8
f 12/20/9 11/19/9 16/25/9 15/26/9
f 14/27/10 13/28/10 10/29/10 9/30/10
f 14/31/11 9/17/11 12/20/11 15/32/11
f 10/18/12 13/21/12 16/24/12 11/19/12
f 17/33/13 18/34/13 19/35/13 20/36/13
f 21/37/14 22/38/14 23/39/14 24/40/14
f 20/36/15 19/35/15 24/41/15 23/42/15
f 22/43/16 21/44/16 18/45/16 17/46/16
f 22/47/17 17/33/17 20/36/17 23/48/17
f 18/34/18 21/37/18 24/40/18 19/35/18
f 25/49/19 26/50/19 27/51/19 28/52/19
f 29/53/20 30/54/20 31/55/20 32/56/20
f 28/52/21 27/51/21 32/57/21 31/58/21
f 30/59/22 29/60/22 26/61/22 25/62/22
f 30/63/23 25/49/23 28/52/23 31/64/23
f 26/50/24 29/53/24 32/56/24 27/51/24
f 33/65/25 34/66/25 35/67/25 36/68/25
f 37/69/26 38/70/26 39/71/26 40/72/26
f 36/68/27 35/67/27 40/73/27 39/74/27
f 38/75/28 37/76/28 34/77/28 33/78/28
f 38/79/29 33/65/29 36/68/29 39/80/29
f 34/66/30 37/69/30 40/72/30 35/67/30
