# Blender v2.78 (sub 0) OBJ File: ''
# www.blender.org
mtllib merlin1d.mtl
o TurboPump
v 0.093750 0.806250 0.031250
v -0.156250 0.806250 0.031250
v -0.156250 0.868750 0.031250
v 0.093750 0.868750 0.031250
v -0.156250 0.806250 0.281250
v 0.093750 0.806250 0.281250
v 0.093750 0.868750 0.281250
v -0.156250 0.868750 0.281250
v 0.216842 1.188566 0.218750
v 0.106474 1.129882 0.218750
v 0.077132 1.185066 0.218750
v 0.187500 1.243750 0.218750
v 0.106474 1.129882 0.281250
v 0.216842 1.188566 0.281250
v 0.187500 1.243750 0.281250
v 0.077132 1.185066 0.281250
v 0.062500 1.400000 0.062500
v -0.125000 1.400000 0.062500
v -0.125000 1.462500 0.062500
v 0.062500 1.462500 0.062500
v -0.125000 1.400000 0.250000
v 0.062500 1.400000 0.250000
v 0.062500 1.462500 0.250000
v -0.125000 1.462500 0.250000
v 0.218750 1.181250 0.218750
v 0.156250 1.181250 0.218750
v 0.156250 1.556250 0.218750
v 0.218750 1.556250 0.218750
v 0.156250 1.181250 0.281250
v 0.218750 1.181250 0.281250
v 0.218750 1.556250 0.281250
v 0.156250 1.556250 0.281250
v 0.187500 1.368750 0.062500
v 0.125000 1.368750 0.062500
v 0.125000 1.556250 0.062500
v 0.187500 1.556250 0.062500
v 0.125000 1.368750 0.125000
v 0.187500 1.368750 0.125000
v 0.187500 1.556250 0.125000
v 0.125000 1.556250 0.125000
v 0.125000 0.868750 0.000000
v -0.187500 0.868750 0.000000
v -0.187500 1.431250 0.000000
v 0.125000 1.431250 0.000000
v -0.187500 0.868750 0.312500
v 0.125000 0.868750 0.312500
v 0.125000 1.431250 0.312500
v -0.187500 1.431250 0.312500
v 0.187500 1.495890 0.095184
v 0.125000 1.495890 0.095184
v 0.125000 1.554621 0.073808
v 0.187500 1.554621 0.073808
v 0.125000 1.560019 0.271376
v 0.187500 1.560019 0.271376
v 0.187500 1.618750 0.250000
v 0.125000 1.618750 0.250000
vt 0.0625 0.0000
vt 0.1250 0.0000
vt 0.1250 0.0156
vt 0.0625 0.0156
vt 0.1875 0.0000
vt 0.2500 0.0000
vt 0.2500 0.0156
vt 0.1875 0.0156
vt 0.1250 0.0781
vt 0.0625 0.0781
vt 0.1250 0.0156
vt 0.1875 0.0156
vt 0.1875 0.0781
vt 0.1250 0.0781
vt 0.0000 0.0000
vt 0.0000 0.0156
vt 0.7188 0.9688
vt 0.7500 0.9688
vt 0.7500 0.9844
vt 0.7188 0.9844
vt 0.7656 0.9688
vt 0.7969 0.9688
vt 0.7969 0.9844
vt 0.7656 0.9844
vt 0.7500 1.0000
vt 0.7188 1.0000
vt 0.7500 0.9844
vt 0.7812 0.9844
vt 0.7812 1.0000
vt 0.7500 1.0000
vt 0.7031 0.9688
vt 0.7031 0.9844
vt 0.0469 0.0938
vt 0.0938 0.0938
vt 0.0938 0.1094
vt 0.0469 0.1094
vt 0.1406 0.0938
vt 0.1875 0.0938
vt 0.1875 0.1094
vt 0.1406 0.1094
vt 0.0938 0.1562
vt 0.0469 0.1562
vt 0.0938 0.1094
vt 0.1406 0.1094
vt 0.1406 0.1562
vt 0.0938 0.1562
vt 0.0000 0.0938
vt 0.0000 0.1094
vt 0.7188 0.8906
vt 0.7344 0.8906
vt 0.7344 0.9844
vt 0.7188 0.9844
vt 0.7500 0.8906
vt 0.7656 0.8906
vt 0.7656 0.9844
vt 0.7500 0.9844
vt 0.7344 1.0000
vt 0.7188 1.0000
vt 0.7344 0.9844
vt 0.7500 0.9844
vt 0.7500 1.0000
vt 0.7344 1.0000
vt 0.7031 0.8906
vt 0.7031 0.9844
vt 0.7188 0.9375
vt 0.7344 0.9375
vt 0.7344 0.9844
vt 0.7188 0.9844
vt 0.7500 0.9375
vt 0.7656 0.9375
vt 0.7656 0.9844
vt 0.7500 0.9844
vt 0.7344 1.0000
vt 0.7188 1.0000
vt 0.7344 0.9844
vt 0.7500 0.9844
vt 0.7500 1.0000
vt 0.7344 1.0000
vt 0.7031 0.9375
vt 0.7031 0.9844
vt 0.0781 0.1719
vt 0.1562 0.1719
vt 0.1562 0.3125
vt 0.0781 0.3125
vt 0.2344 0.1719
vt 0.3125 0.1719
vt 0.3125 0.3125
vt 0.2344 0.3125
vt 0.1562 0.3906
vt 0.0781 0.3906
vt 0.1562 0.3125
vt 0.2344 0.3125
vt 0.2344 0.3906
vt 0.1562 0.3906
vt 0.0000 0.1719
vt 0.0000 0.3125
vt 0.7500 0.9375
vt 0.7656 0.9375
vt 0.7656 0.9531
vt 0.7500 0.9531
vt 0.8125 0.9375
vt 0.8281 0.9375
vt 0.8281 0.9531
vt 0.8125 0.9531
vt 0.7656 1.0000
vt 0.7500 1.0000
vt 0.7656 0.9531
vt 0.7812 0.9531
vt 0.7812 1.0000
vt 0.7656 1.0000
vt 0.7031 0.9375
vt 0.7031 0.9531
vn 0.0000 0.0000 -1.0000
vn 0.0000 -0.0000 1.0000
vn 0.0000 1.0000 0.0000
vn 0.0000 -1.0000 -0.0000
vn 1.0000 -0.0000 0.0000
vn -1.0000 0.0000 0.0000
vn -0.4695 0.8829 0.0000
vn 0.4695 -0.8829 0.0000
vn 0.8829 0.4695 0.0000
vn -0.8829 -0.4695 0.0000
vn 0.0000 -0.3420 -0.9397
vn 0.0000 0.3420 0.9397
vn 0.0000 0.9397 -0.3420
vn 0.0000 -0.9397 0.3420
usemtl None
f 1/1/1 2/2/1 3/3/1 4/4/1
f 5/5/2 6/6/2 7/7/2 8/8/2
f 4/4/3 3/3/3 8/9/3 7/10/3
f 6/11/4 5/12/4 2/13/4 1/14/4
f 6/15/5 1/1/5 4/4/5 7/16/5
f 2/2/6 5/5/6 8/8/6 3/3/6
f 9/17/1 10/18/1 11/19/1 12/20/1
f 13/21/2 14/22/2 15/23/2 16/24/2
f 12/20/7 11/19/7 16/25/7 15/26/7
f 14/27/8 13/28/8 10/29/8 9/30/8
f 14/31/9 9/17/9 12/20/9 15/32/9
f 10/18/10 13/21/10 16/24/10 11/19/10
f 17/33/1 18/34/1 19/35/1 20/36/1
f 21/37/2 22/38/2 23/39/2 24/40/2
f 20/36/3 19/35/3 24/41/3 23/42/3
f 22/43/4 21/44/4 18/45/4 17/46/4
f 22/47/5 17/33/5 20/36/5 23/48/5
f 18/34/6 21/37/6 24/40/6 19/35/6
f 25/49/1 26/50/1 27/51/1 28/52/1
f 29/53/2 30/54/2 31/55/2 32/56/2
f 28/52/3 27/51/3 32/57/3 31/58/3
f 30/59/4 29/60/4 26/61/4 25/62/4
f 30/63/5 25/49/5 28/52/5 31/64/5
f 26/50/6 29/53/6 32/56/6 27/51/6
f 33/65/1 34/66/1 35/67/1 36/68/1
f 37/69/2 38/70/2 39/71/2 40/72/2
f 36/68/3 35/67/3 40/73/3 39/74/3
f 38/75/4 37/76/4 34/77/4 33/78/4
f 38/79/5 33/65/5 36/68/5 39/80/5
f 34/66/6 37/69/6 40/72/6 35/67/6
f 41/81/1 42/82/1 43/83/1 44/84/1
f 45/85/2 46/86/2 47/87/2 48/88/2
f 44/84/3 43/83/3 48/89/3 47/90/3
f 46/91/4 45/92/4 42/93/4 41/94/4
f 46/95/5 41/81/5 44/84/5 47/96/5
f 42/82/6 45/85/6 48/88/6 43/83/6
f 49/97/11 50/98/11 51/99/11 52/100/11
f 53/101/12 54/102/12 55/103/12 56/104/12
f 52/100/13 51/99/13 56/105/13 55/106/13
f 54/107/14 53/108/14 50/109/14 49/110/14
f 54/111/5 49/97/5 52/100/5 55/112/5
f 50/98/6 53/101/6 56/104/6 51/99/6
